<?xml version="1.0" encoding="UTF-8"?>
<!DOCTYPE svg PUBLIC "-//W3C//DTD SVG 1.1//EN" "http://www.w3.org/Graphics/SVG/1.1/DTD/svg11.dtd">
<!-- Creator: CorelDRAW -->
<svg xmlns="http://www.w3.org/2000/svg" xml:space="preserve" width="75.1416mm" height="75.1416mm" version="1.1" style="shape-rendering:geometricPrecision; text-rendering:geometricPrecision; image-rendering:optimizeQuality; fill-rule:evenodd; clip-rule:evenodd"
viewBox="0 0 571.86 571.86"
 xmlns:xlink="http://www.w3.org/1999/xlink"
 xmlns:xodm="http://www.corel.com/coreldraw/odm/2003">
 <defs>
  <style type="text/css">
   <![CDATA[
    .fil0 {fill:#FEFEFE}
    .fil1 {fill:#727271}
   ]]>
  </style>
 </defs>
 <g id="Capa_x0020_1">
  <metadata id="CorelCorpID_0Corel-Layer"/>
  <circle class="fil0" cx="285.93" cy="285.93" r="285.93"/>
  <g id="_3106209365424">
   <path class="fil1" d="M331.21 56.7c-0.87,-24.63 -23.48,-44.21 -43.47,-44.21 -19.99,0 -42.6,19.58 -43.47,44.21 -0.53,15.05 5.03,24.49 10.18,38.39 7.84,21.15 18.02,56.34 23.6,122.63 8.2,97.38 1.99,260.44 9.69,294.65 7.69,-34.21 1.49,-197.27 9.69,-294.65 5.58,-66.28 15.76,-101.48 23.6,-122.63 5.15,-13.9 10.71,-23.34 10.18,-38.39z"/>
   <path class="fil1" d="M174.08 229.64c16.01,30.16 38.1,57.68 49.88,107.68 16.41,69.69 17.05,118.6 26.07,181.14 0.97,-100.28 0.05,-196.86 -8.66,-297.26 -1.84,-21.18 -0.36,-43.34 -18.57,-57.69 -19.69,-15.52 -49.39,-8.29 -58.79,18.08 -5.96,16.73 2.3,33.44 10.06,48.05z"/>
   <path class="fil1" d="M155.62 327.92c12.22,14.23 21.7,22.01 33.66,57.22 16.68,49.09 14.45,84.36 25.4,128.4 -1.21,-25.31 -2.22,-45.8 -3.4,-63.8 -2.78,-42.46 -6.5,-70.95 -15.93,-115.73 -1.79,-8.51 -7.89,-28.27 -15.67,-45.41 -7.57,-16.68 -15.11,-31.73 -34.79,-33.46 -12.34,-1.09 -24.66,4.54 -29.61,17.69 -4.17,11.07 -1.06,18.81 4.42,25.34 9.06,10.79 25.84,18.03 35.9,29.75z"/>
   <path class="fil1" d="M398.96 229.64c-16.01,30.16 -38.1,57.68 -49.88,107.68 -16.41,69.69 -17.05,118.6 -26.07,181.14 -0.97,-100.28 -0.05,-196.86 8.66,-297.26 1.84,-21.18 0.36,-43.34 18.57,-57.69 19.69,-15.52 49.39,-8.29 58.79,18.08 5.96,16.73 -2.3,33.44 -10.06,48.05z"/>
   <path class="fil1" d="M417.42 327.92c-12.22,14.23 -21.7,22.01 -33.66,57.22 -16.68,49.09 -14.45,84.36 -25.4,128.4 1.21,-25.31 2.22,-45.8 3.4,-63.8 2.78,-42.46 6.5,-70.95 15.93,-115.73 1.79,-8.51 7.89,-28.27 15.67,-45.41 7.57,-16.68 15.11,-31.73 34.79,-33.46 12.34,-1.09 24.66,4.54 29.61,17.69 4.17,11.07 1.06,18.81 -4.42,25.34 -9.06,10.79 -25.84,18.03 -35.9,29.75z"/>
  </g>
  <path class="fil1" d="M553.44 387.04c-40.85,108.01 -145.2,184.82 -267.51,184.82 -122.31,0 -226.67,-76.81 -267.51,-184.82 50.34,96.39 151.24,162.2 267.51,162.2 116.28,0 217.17,-65.81 267.51,-162.2z"/>
  <path class="fil1" d="M498.57 367.05c-20.67,97.47 -107.2,170.61 -210.83,170.61 -103.63,0 -190.16,-73.14 -210.83,-170.61 27.19,90.7 111.28,156.79 210.83,156.79 99.55,0 183.64,-66.1 210.83,-156.79z"/>
 </g>
</svg>
