<?xml version="1.0" encoding="UTF-8"?>
<!DOCTYPE svg PUBLIC "-//W3C//DTD SVG 1.1//EN" "http://www.w3.org/Graphics/SVG/1.1/DTD/svg11.dtd">
<!-- Creator: CorelDRAW -->
<svg xmlns="http://www.w3.org/2000/svg" xml:space="preserve" width="75.1416mm" height="75.1416mm" version="1.1" style="shape-rendering:geometricPrecision; text-rendering:geometricPrecision; image-rendering:optimizeQuality; fill-rule:evenodd; clip-rule:evenodd"
viewBox="0 0 1578.83 1578.83"
 xmlns:xlink="http://www.w3.org/1999/xlink"
 xmlns:xodm="http://www.corel.com/coreldraw/odm/2003">
 <defs>
  <style type="text/css">
   <![CDATA[
    .fil0 {fill:#FEFEFE}
    .fil1 {fill:#FFED00}
    .fil2 {fill:#E31E24}
    .fil3 {fill:#009846}
    .fil4 {fill:#578EC3}
   ]]>
  </style>
 </defs>
 <g id="Capa_x0020_1">
  <metadata id="CorelCorpID_0Corel-Layer"/>
  <g id="_3107182745408">
   <circle class="fil0" cx="789.41" cy="789.41" r="789.41"/>
   <g>
    <path class="fil1" d="M914.42 156.55c-2.4,-68.01 -64.83,-122.06 -120.01,-122.06 -55.18,0 -117.61,54.05 -120.01,122.06 -1.47,41.56 13.89,67.61 28.12,105.99 21.64,58.39 49.74,155.55 65.15,338.55 22.64,268.85 5.5,719.04 26.74,813.48 21.24,-94.45 4.1,-544.64 26.75,-813.48 15.41,-183 43.52,-280.16 65.15,-338.55 14.22,-38.38 29.58,-64.44 28.12,-105.99z"/>
    <path class="fil2" d="M480.62 634c44.21,83.26 105.2,159.24 137.71,297.28 45.32,192.41 47.07,327.45 71.97,500.1 2.68,-276.85 0.15,-543.52 -23.9,-820.69 -5.07,-58.48 -0.98,-119.65 -51.26,-159.29 -54.35,-42.86 -136.37,-22.88 -162.3,49.93 -16.45,46.2 6.35,92.32 27.77,132.66z"/>
    <path class="fil3" d="M429.64 905.35c33.74,39.3 59.9,60.75 92.94,157.98 46.06,135.52 39.9,232.9 70.13,354.5 -3.33,-69.87 -6.12,-126.46 -9.38,-176.13 -7.68,-117.21 -17.95,-195.88 -43.97,-319.53 -4.94,-23.5 -21.79,-78.05 -43.26,-125.36 -20.9,-46.05 -41.72,-87.61 -96.04,-92.39 -34.08,-3 -68.08,12.52 -81.74,48.83 -11.5,30.57 -2.93,51.94 12.21,69.96 25.03,29.8 71.34,49.78 99.11,82.14z"/>
    <path class="fil2" d="M1101.47 634c-44.21,83.26 -105.2,159.24 -137.71,297.28 -45.32,192.41 -47.07,327.45 -71.97,500.1 -2.68,-276.85 -0.15,-543.52 23.9,-820.69 5.07,-58.48 0.98,-119.65 51.26,-159.29 54.35,-42.86 136.37,-22.88 162.3,49.93 16.45,46.2 -6.35,92.32 -27.77,132.66z"/>
    <path class="fil3" d="M1152.44 905.35c-33.73,39.3 -59.9,60.75 -92.94,157.98 -46.06,135.52 -39.9,232.9 -70.14,354.5 3.33,-69.87 6.12,-126.46 9.38,-176.13 7.68,-117.21 17.95,-195.88 43.97,-319.53 4.95,-23.5 21.79,-78.05 43.26,-125.36 20.9,-46.05 41.72,-87.61 96.04,-92.39 34.08,-3 68.08,12.52 81.74,48.83 11.5,30.57 2.93,51.94 -12.21,69.96 -25.03,29.8 -71.34,49.78 -99.11,82.14z"/>
   </g>
   <path class="fil4" d="M1527.99 1068.58c-112.77,298.19 -400.88,510.25 -738.57,510.25 -337.69,0 -625.8,-212.06 -738.57,-510.25 138.99,266.13 417.54,447.81 738.57,447.81 321.03,0 599.58,-181.69 738.57,-447.81z"/>
   <path class="fil4" d="M1376.48 1013.38c-57.06,269.1 -295.97,471.03 -582.07,471.03 -286.1,0 -525.01,-201.93 -582.07,-471.03 75.07,250.4 307.24,432.88 582.07,432.88 274.83,0 507.01,-182.49 582.07,-432.88z"/>
  </g>
 </g>
</svg>
