<?xml version="1.0" encoding="UTF-8"?>
<!DOCTYPE svg PUBLIC "-//W3C//DTD SVG 1.1//EN" "http://www.w3.org/Graphics/SVG/1.1/DTD/svg11.dtd">
<!-- Creator: CorelDRAW -->
<svg xmlns="http://www.w3.org/2000/svg" xml:space="preserve" width="51.3754mm" height="51.3754mm" version="1.1" style="shape-rendering:geometricPrecision; text-rendering:geometricPrecision; image-rendering:optimizeQuality; fill-rule:evenodd; clip-rule:evenodd"
viewBox="0 0 264.32 264.32"
 xmlns:xlink="http://www.w3.org/1999/xlink"
 xmlns:xodm="http://www.corel.com/coreldraw/odm/2003">
 <defs>
  <style type="text/css">
   <![CDATA[
    .fil4 {fill:none}
    .fil0 {fill:#FEFEFE}
    .fil1 {fill:#FECC00}
    .fil2 {fill:#E31E24}
    .fil3 {fill:#009846}
   ]]>
  </style>
   <clipPath id="id0">
    <path d="M132.16 0c72.99,0 132.16,59.17 132.16,132.16 0,72.99 -59.17,132.16 -132.16,132.16 -72.99,0 -132.16,-59.17 -132.16,-132.16 0,-72.99 59.17,-132.16 132.16,-132.16z"/>
   </clipPath>
 </defs>
 <g id="Capa_x0020_1">
  <metadata id="CorelCorpID_0Corel-Layer"/>
  <path class="fil0" d="M132.16 0c72.99,0 132.16,59.17 132.16,132.16 0,72.99 -59.17,132.16 -132.16,132.16 -72.99,0 -132.16,-59.17 -132.16,-132.16 0,-72.99 59.17,-132.16 132.16,-132.16z"/>
  <g style="clip-path:url(#id0)">
   <g id="_3106692822080">
    <g>
     <path id="_1" class="fil1" d="M162.77 16.38c-0.59,-16.65 -15.87,-29.89 -29.39,-29.89 -13.51,0 -28.8,13.24 -29.39,29.89 -0.36,10.18 3.4,16.56 6.88,25.95 5.3,14.3 12.18,38.09 15.95,82.9 5.54,65.83 1.35,176.06 6.55,199.19 5.2,-23.13 1,-133.36 6.55,-199.19 3.77,-44.81 10.66,-68.6 15.95,-82.9 3.48,-9.4 7.24,-15.78 6.88,-25.95z"/>
     <path class="fil2" d="M56.55 133.29c10.83,20.39 25.76,38.99 33.72,72.79 11.1,47.11 11.52,80.18 17.62,122.46 0.66,-67.79 0.04,-133.09 -5.85,-200.95 -1.24,-14.32 -0.24,-29.3 -12.55,-39 -13.31,-10.49 -33.39,-5.6 -39.74,12.23 -4.03,11.31 1.56,22.61 6.8,32.48z"/>
     <path class="fil3" d="M44.07 199.73c8.26,9.62 14.67,14.88 22.76,38.68 11.28,33.18 9.77,57.03 17.17,86.8 -0.82,-17.11 -1.5,-30.97 -2.3,-43.13 -1.88,-28.7 -4.4,-47.96 -10.77,-78.24 -1.21,-5.75 -5.34,-19.11 -10.59,-30.7 -5.12,-11.28 -10.21,-21.45 -23.52,-22.62 -8.34,-0.73 -16.67,3.07 -20.02,11.96 -2.82,7.48 -0.72,12.72 2.99,17.13 6.13,7.3 17.47,12.19 24.27,20.11z"/>
     <path class="fil2" d="M208.57 133.29c-10.83,20.39 -25.76,38.99 -33.72,72.79 -11.1,47.11 -11.52,80.18 -17.62,122.46 -0.66,-67.79 -0.04,-133.09 5.85,-200.95 1.24,-14.32 0.24,-29.3 12.55,-39 13.31,-10.49 33.39,-5.6 39.74,12.23 4.03,11.31 -1.56,22.61 -6.8,32.48z"/>
     <path class="fil3" d="M221.05 199.73c-8.26,9.62 -14.67,14.88 -22.76,38.68 -11.28,33.18 -9.77,57.03 -17.17,86.8 0.82,-17.11 1.5,-30.97 2.3,-43.13 1.88,-28.7 4.4,-47.96 10.77,-78.24 1.21,-5.75 5.34,-19.11 10.59,-30.7 5.12,-11.28 10.21,-21.45 23.52,-22.62 8.34,-0.73 16.67,3.07 20.02,11.96 2.82,7.48 0.72,12.72 -2.99,17.13 -6.13,7.3 -17.47,12.19 -24.27,20.11z"/>
    </g>
   </g>
  </g>
  <path class="fil4" d="M132.16 0c72.99,0 132.16,59.17 132.16,132.16 0,72.99 -59.17,132.16 -132.16,132.16 -72.99,0 -132.16,-59.17 -132.16,-132.16 0,-72.99 59.17,-132.16 132.16,-132.16z"/>
 </g>
</svg>
