<?xml version="1.0" encoding="UTF-8"?>
<!DOCTYPE svg PUBLIC "-//W3C//DTD SVG 1.1//EN" "http://www.w3.org/Graphics/SVG/1.1/DTD/svg11.dtd">
<!-- Creator: CorelDRAW -->
<svg xmlns="http://www.w3.org/2000/svg" xml:space="preserve" width="5.2171mm" height="3.9372mm" version="1.1" style="shape-rendering:geometricPrecision; text-rendering:geometricPrecision; image-rendering:optimizeQuality; fill-rule:evenodd; clip-rule:evenodd"
viewBox="0 0 25.08 18.92"
 xmlns:xlink="http://www.w3.org/1999/xlink"
 xmlns:xodm="http://www.corel.com/coreldraw/odm/2003">
 <defs>
  <style type="text/css">
   <![CDATA[
    .fil0 {fill:#FEFEFE;fill-rule:nonzero}
   ]]>
  </style>
 </defs>
 <g id="Capa_x0020_1">
  <metadata id="CorelCorpID_0Corel-Layer"/>
  <path class="fil0" d="M2.04 11.5c-1.12,0 -2.04,-0.91 -2.04,-2.04 0,-1.12 0.91,-2.04 2.04,-2.04l21.01 0c1.12,0 2.04,0.91 2.04,2.04 0,1.12 -0.91,2.04 -2.04,2.04l-21.01 0z"/>
  <path class="fil0" d="M2.04 18.92c-1.12,0 -2.04,-0.91 -2.04,-2.04 0,-1.12 0.91,-2.04 2.04,-2.04l21.01 0c1.12,0 2.04,0.91 2.04,2.04 0,1.12 -0.91,2.04 -2.04,2.04l-21.01 0z"/>
  <path class="fil0" d="M2.04 4.07c-1.12,0 -2.04,-0.91 -2.04,-2.04 0,-1.12 0.91,-2.04 2.04,-2.04l21.01 0c1.12,0 2.04,0.91 2.04,2.04 0,1.12 -0.91,2.04 -2.04,2.04l-21.01 0z"/>
 </g>
</svg>
